<svg width="24" height="24" viewBox="0 0 24 24" fill="none" xmlns="http://www.w3.org/2000/svg">
<g clip-path="url(#clip0_560_19009)">
<rect width="24" height="24" rx="2" fill="#003D6B"/>
<g clip-path="url(#clip1_560_19009)">
<path d="M17.0348 14.1714V8.34196C17.0348 7.72084 16.7881 7.12515 16.3489 6.68595C15.9097 6.24674 15.314 6 14.6928 6H7.37704C7.06947 5.99996 6.7649 6.06051 6.48074 6.17819C6.19657 6.29586 5.93836 6.46837 5.72087 6.68585C5.50338 6.90332 5.33086 7.16151 5.21316 7.44567C5.09546 7.72983 5.03489 8.03439 5.03491 8.34196V15.6577C5.03489 15.9653 5.09545 16.2698 5.21313 16.5539C5.33081 16.8381 5.5033 17.0963 5.72076 17.3137C5.93822 17.5312 6.19639 17.7037 6.48052 17.8214C6.76466 17.9391 7.06919 17.9997 7.37674 17.9997H14.6925C14.7904 17.9997 14.8882 17.9936 14.9853 17.9814H20.7401L17.0348 14.1714ZM10.2649 16.7238H8.19927C7.94904 16.7238 7.70126 16.6746 7.47008 16.5788C7.2389 16.4831 7.02884 16.3427 6.85189 16.1658C6.67495 15.9889 6.53459 15.7788 6.43883 15.5477C6.34307 15.3165 6.29378 15.0687 6.29378 14.8185V12.6866H8.5261V13.8506C8.5261 14.0197 8.59328 14.1819 8.71287 14.3016C8.83246 14.4212 8.99467 14.4884 9.16382 14.4884H10.2649V16.7238ZM10.2649 9.49746H9.16382C8.99467 9.4975 8.83246 9.56472 8.71287 9.68434C8.59328 9.80396 8.5261 9.96618 8.5261 10.1353V11.2035H6.29378V9.12277C6.29378 8.87255 6.34307 8.62478 6.43883 8.3936C6.53459 8.16243 6.67495 7.95238 6.85189 7.77545C7.02884 7.59853 7.2389 7.45819 7.47008 7.36244C7.70126 7.2667 7.94904 7.21743 8.19927 7.21745H10.2649V9.49746ZM15.8016 11.2035H13.5163V10.1353C13.5164 10.0516 13.4999 9.96862 13.4678 9.89123C13.4358 9.81385 13.3888 9.74353 13.3296 9.68429C13.2704 9.62506 13.2001 9.57807 13.1227 9.54601C13.0453 9.51396 12.9624 9.49746 12.8786 9.49746H11.7628V7.21745H13.8947C14.1449 7.21741 14.3927 7.26667 14.6239 7.3624C14.8551 7.45813 15.0652 7.59847 15.2422 7.7754C15.4191 7.95233 15.5595 8.16238 15.6553 8.39357C15.751 8.62475 15.8003 8.87254 15.8003 9.12277L15.8016 11.2035Z" fill="white"/>
<path d="M13.5302 12.386V13.8864C13.5302 14.0417 13.4685 14.1906 13.3588 14.3004C13.249 14.4102 13.1001 14.4718 12.9448 14.4718H11.7629V16.6931H17.684L13.5302 12.386Z" fill="#00A796"/>
</g>
</g>
<defs>
<clipPath id="clip0_560_19009">
<rect width="24" height="24" rx="4" fill="white"/>
</clipPath>
<clipPath id="clip1_560_19009">
<rect width="18.7397" height="12" fill="white" transform="translate(2 6)"/>
</clipPath>
</defs>
</svg>
